<svg xmlns="http://www.w3.org/2000/svg" viewBox="0 0 16 16">
  <g id="cat-16bit-favicon" fill-rule="evenodd">
    <path fill="#000000" fill-opacity="1" class="c0" d="M4,1h1v1h1v1h3v-1h1v-1h1v1h1v2h1v1h1v3h-1v1h-1v2h1v1h1v-3h1v4h-2v1h-1v1h-9v-1h-1v-3h1v-2h-1v-1h-1v-3h1v-1h1v-2h1zM4,5h2v1h-2zM9,5h2v1h-2zM7,6h1v1h1v1h-1v-1h-1v1h-1v-1h1zM2,8h1v1h1v2h-1v3h9v-3h-1v-2h1v-1h1v-3h-1v-1h-1v-2h-1v1h-1v1h-3v-1h-1v-1h-1v2h-1v1h-1z" />
    <path fill="#ffffff" fill-opacity="1" class="c1" d="M4,2h1v1h1v1h3v-1h1v-1h1v2h1v1h1v3h-1v1h-1v2h1v3h-9v-3h1v-2h-1v-1h-1v-3h1v-1h1zM4,6h2v-1h-2zM9,6h2v-1h-2zM7,7h1v-1h-1v1h-1v1h1zM8,8h1v-1h-1z" />
  </g>
</svg>
