<svg xmlns="http://www.w3.org/2000/svg" viewBox="0 0 20 20">
  <g id="cat-16bit-profile" fill-rule="evenodd">
    <path fill="#000000" fill-opacity="1" class="c0" d="M6,3h1v1h1v1h3v-1h1v-1h1v1h1v2h1v1h1v3h-1v1h-1v2h1v1h1v-3h1v4h-2v1h-1v1h-9v-1h-1v-3h1v-2h-1v-1h-1v-3h1v-1h1v-2h1zM6,7h2v1h-2zM11,7h2v1h-2zM9,8h1v1h1v1h-1v-1h-1v1h-1v-1h1zM4,10h1v1h1v2h-1v3h9v-3h-1v-2h1v-1h1v-3h-1v-1h-1v-2h-1v1h-1v1h-3v-1h-1v-1h-1v2h-1v1h-1z" />
    <path fill="#ffffff" fill-opacity="1" class="c1" d="M6,4h1v1h1v1h3v-1h1v-1h1v2h1v1h1v3h-1v1h-1v2h1v3h-9v-3h1v-2h-1v-1h-1v-3h1v-1h1zM6,8h2v-1h-2zM11,8h2v-1h-2zM9,9h1v-1h-1v1h-1v1h1zM10,10h1v-1h-1z" />
  </g>
</svg>
